<?xml version="1.0" encoding="utf-8"?>
<svg xmlns="http://www.w3.org/2000/svg" xmlns:xlink="http://www.w3.org/1999/xlink" width="600" height="400" viewBox="0 0 2400 1600">
<defs>
  <clipPath id="clip580">
    <rect x="0" y="0" width="2400" height="1600"/>
  </clipPath>
</defs>
<path clip-path="url(#clip580)" d="M0 1600 L2400 1600 L2400 0 L0 0  Z" fill="#ffffff" fill-rule="evenodd" fill-opacity="1"/>
<defs>
  <clipPath id="clip581">
    <rect x="480" y="0" width="1681" height="1600"/>
  </clipPath>
</defs>
<path clip-path="url(#clip580)" d="M186.274 1486.45 L2352.76 1486.45 L2352.76 47.2441 L186.274 47.2441  Z" fill="#ffffff" fill-rule="evenodd" fill-opacity="1"/>
<defs>
  <clipPath id="clip582">
    <rect x="186" y="47" width="2167" height="1440"/>
  </clipPath>
</defs>
<polyline clip-path="url(#clip582)" style="stroke:#000000; stroke-linecap:round; stroke-linejoin:round; stroke-width:2; stroke-opacity:0.1; fill:none" points="247.59,1486.45 247.59,47.2441 "/>
<polyline clip-path="url(#clip582)" style="stroke:#000000; stroke-linecap:round; stroke-linejoin:round; stroke-width:2; stroke-opacity:0.1; fill:none" points="899.207,1486.45 899.207,47.2441 "/>
<polyline clip-path="url(#clip582)" style="stroke:#000000; stroke-linecap:round; stroke-linejoin:round; stroke-width:2; stroke-opacity:0.1; fill:none" points="1550.82,1486.45 1550.82,47.2441 "/>
<polyline clip-path="url(#clip582)" style="stroke:#000000; stroke-linecap:round; stroke-linejoin:round; stroke-width:2; stroke-opacity:0.1; fill:none" points="2202.44,1486.45 2202.44,47.2441 "/>
<polyline clip-path="url(#clip582)" style="stroke:#000000; stroke-linecap:round; stroke-linejoin:round; stroke-width:2; stroke-opacity:0.1; fill:none" points="186.274,1445.72 2352.76,1445.72 "/>
<polyline clip-path="url(#clip582)" style="stroke:#000000; stroke-linecap:round; stroke-linejoin:round; stroke-width:2; stroke-opacity:0.1; fill:none" points="186.274,1106.07 2352.76,1106.07 "/>
<polyline clip-path="url(#clip582)" style="stroke:#000000; stroke-linecap:round; stroke-linejoin:round; stroke-width:2; stroke-opacity:0.1; fill:none" points="186.274,766.42 2352.76,766.42 "/>
<polyline clip-path="url(#clip582)" style="stroke:#000000; stroke-linecap:round; stroke-linejoin:round; stroke-width:2; stroke-opacity:0.1; fill:none" points="186.274,426.772 2352.76,426.772 "/>
<polyline clip-path="url(#clip582)" style="stroke:#000000; stroke-linecap:round; stroke-linejoin:round; stroke-width:2; stroke-opacity:0.1; fill:none" points="186.274,87.1238 2352.76,87.1238 "/>
<polyline clip-path="url(#clip580)" style="stroke:#000000; stroke-linecap:round; stroke-linejoin:round; stroke-width:4; stroke-opacity:1; fill:none" points="186.274,1486.45 2352.76,1486.45 "/>
<polyline clip-path="url(#clip580)" style="stroke:#000000; stroke-linecap:round; stroke-linejoin:round; stroke-width:4; stroke-opacity:1; fill:none" points="247.59,1486.45 247.59,1467.55 "/>
<polyline clip-path="url(#clip580)" style="stroke:#000000; stroke-linecap:round; stroke-linejoin:round; stroke-width:4; stroke-opacity:1; fill:none" points="899.207,1486.45 899.207,1467.55 "/>
<polyline clip-path="url(#clip580)" style="stroke:#000000; stroke-linecap:round; stroke-linejoin:round; stroke-width:4; stroke-opacity:1; fill:none" points="1550.82,1486.45 1550.82,1467.55 "/>
<polyline clip-path="url(#clip580)" style="stroke:#000000; stroke-linecap:round; stroke-linejoin:round; stroke-width:4; stroke-opacity:1; fill:none" points="2202.44,1486.45 2202.44,1467.55 "/>
<path clip-path="url(#clip580)" d="M247.59 1517.37 Q243.978 1517.37 242.15 1520.93 Q240.344 1524.47 240.344 1531.6 Q240.344 1538.71 242.15 1542.27 Q243.978 1545.82 247.59 1545.82 Q251.224 1545.82 253.029 1542.27 Q254.858 1538.71 254.858 1531.6 Q254.858 1524.47 253.029 1520.93 Q251.224 1517.37 247.59 1517.37 M247.59 1513.66 Q253.4 1513.66 256.455 1518.27 Q259.534 1522.85 259.534 1531.6 Q259.534 1540.33 256.455 1544.94 Q253.4 1549.52 247.59 1549.52 Q241.779 1549.52 238.701 1544.94 Q235.645 1540.33 235.645 1531.6 Q235.645 1522.85 238.701 1518.27 Q241.779 1513.66 247.59 1513.66 Z" fill="#000000" fill-rule="nonzero" fill-opacity="1" /><path clip-path="url(#clip580)" d="M889.589 1544.91 L897.228 1544.91 L897.228 1518.55 L888.917 1520.21 L888.917 1515.95 L897.181 1514.29 L901.857 1514.29 L901.857 1544.91 L909.496 1544.91 L909.496 1548.85 L889.589 1548.85 L889.589 1544.91 Z" fill="#000000" fill-rule="nonzero" fill-opacity="1" /><path clip-path="url(#clip580)" d="M1545.48 1544.91 L1561.8 1544.91 L1561.8 1548.85 L1539.85 1548.85 L1539.85 1544.91 Q1542.51 1542.16 1547.1 1537.53 Q1551.7 1532.88 1552.88 1531.53 Q1555.13 1529.01 1556.01 1527.27 Q1556.91 1525.51 1556.91 1523.82 Q1556.91 1521.07 1554.97 1519.33 Q1553.05 1517.6 1549.94 1517.6 Q1547.75 1517.6 1545.29 1518.36 Q1542.86 1519.13 1540.08 1520.68 L1540.08 1515.95 Q1542.91 1514.82 1545.36 1514.24 Q1547.81 1513.66 1549.85 1513.66 Q1555.22 1513.66 1558.42 1516.35 Q1561.61 1519.03 1561.61 1523.52 Q1561.61 1525.65 1560.8 1527.57 Q1560.01 1529.47 1557.91 1532.07 Q1557.33 1532.74 1554.23 1535.95 Q1551.12 1539.15 1545.48 1544.91 Z" fill="#000000" fill-rule="nonzero" fill-opacity="1" /><path clip-path="url(#clip580)" d="M2206.69 1530.21 Q2210.05 1530.93 2211.92 1533.2 Q2213.82 1535.47 2213.82 1538.8 Q2213.82 1543.92 2210.3 1546.72 Q2206.78 1549.52 2200.3 1549.52 Q2198.12 1549.52 2195.81 1549.08 Q2193.52 1548.66 2191.06 1547.81 L2191.06 1543.29 Q2193.01 1544.43 2195.32 1545.01 Q2197.64 1545.58 2200.16 1545.58 Q2204.56 1545.58 2206.85 1543.85 Q2209.17 1542.11 2209.17 1538.8 Q2209.17 1535.75 2207.01 1534.03 Q2204.88 1532.3 2201.06 1532.3 L2197.04 1532.3 L2197.04 1528.45 L2201.25 1528.45 Q2204.7 1528.45 2206.53 1527.09 Q2208.36 1525.7 2208.36 1523.11 Q2208.36 1520.45 2206.46 1519.03 Q2204.58 1517.6 2201.06 1517.6 Q2199.14 1517.6 2196.94 1518.01 Q2194.74 1518.43 2192.11 1519.31 L2192.11 1515.14 Q2194.77 1514.4 2197.08 1514.03 Q2199.42 1513.66 2201.48 1513.66 Q2206.8 1513.66 2209.91 1516.09 Q2213.01 1518.5 2213.01 1522.62 Q2213.01 1525.49 2211.36 1527.48 Q2209.72 1529.45 2206.69 1530.21 Z" fill="#000000" fill-rule="nonzero" fill-opacity="1" /><polyline clip-path="url(#clip580)" style="stroke:#000000; stroke-linecap:round; stroke-linejoin:round; stroke-width:4; stroke-opacity:1; fill:none" points="186.274,1486.45 186.274,47.2441 "/>
<polyline clip-path="url(#clip580)" style="stroke:#000000; stroke-linecap:round; stroke-linejoin:round; stroke-width:4; stroke-opacity:1; fill:none" points="186.274,1445.72 205.172,1445.72 "/>
<polyline clip-path="url(#clip580)" style="stroke:#000000; stroke-linecap:round; stroke-linejoin:round; stroke-width:4; stroke-opacity:1; fill:none" points="186.274,1106.07 205.172,1106.07 "/>
<polyline clip-path="url(#clip580)" style="stroke:#000000; stroke-linecap:round; stroke-linejoin:round; stroke-width:4; stroke-opacity:1; fill:none" points="186.274,766.42 205.172,766.42 "/>
<polyline clip-path="url(#clip580)" style="stroke:#000000; stroke-linecap:round; stroke-linejoin:round; stroke-width:4; stroke-opacity:1; fill:none" points="186.274,426.772 205.172,426.772 "/>
<polyline clip-path="url(#clip580)" style="stroke:#000000; stroke-linecap:round; stroke-linejoin:round; stroke-width:4; stroke-opacity:1; fill:none" points="186.274,87.1238 205.172,87.1238 "/>
<path clip-path="url(#clip580)" d="M62.9365 1431.51 Q59.3254 1431.51 57.4967 1435.08 Q55.6912 1438.62 55.6912 1445.75 Q55.6912 1452.86 57.4967 1456.42 Q59.3254 1459.96 62.9365 1459.96 Q66.5707 1459.96 68.3763 1456.42 Q70.205 1452.86 70.205 1445.75 Q70.205 1438.62 68.3763 1435.08 Q66.5707 1431.51 62.9365 1431.51 M62.9365 1427.81 Q68.7467 1427.81 71.8022 1432.42 Q74.8809 1437 74.8809 1445.75 Q74.8809 1454.48 71.8022 1459.08 Q68.7467 1463.67 62.9365 1463.67 Q57.1264 1463.67 54.0477 1459.08 Q50.9921 1454.48 50.9921 1445.75 Q50.9921 1437 54.0477 1432.42 Q57.1264 1427.81 62.9365 1427.81 Z" fill="#000000" fill-rule="nonzero" fill-opacity="1" /><path clip-path="url(#clip580)" d="M83.0984 1457.12 L87.9827 1457.12 L87.9827 1463 L83.0984 1463 L83.0984 1457.12 Z" fill="#000000" fill-rule="nonzero" fill-opacity="1" /><path clip-path="url(#clip580)" d="M108.168 1431.51 Q104.557 1431.51 102.728 1435.08 Q100.922 1438.62 100.922 1445.75 Q100.922 1452.86 102.728 1456.42 Q104.557 1459.96 108.168 1459.96 Q111.802 1459.96 113.608 1456.42 Q115.436 1452.86 115.436 1445.75 Q115.436 1438.62 113.608 1435.08 Q111.802 1431.51 108.168 1431.51 M108.168 1427.81 Q113.978 1427.81 117.033 1432.42 Q120.112 1437 120.112 1445.75 Q120.112 1454.48 117.033 1459.08 Q113.978 1463.67 108.168 1463.67 Q102.358 1463.67 99.2789 1459.08 Q96.2234 1454.48 96.2234 1445.75 Q96.2234 1437 99.2789 1432.42 Q102.358 1427.81 108.168 1427.81 Z" fill="#000000" fill-rule="nonzero" fill-opacity="1" /><path clip-path="url(#clip580)" d="M138.33 1431.51 Q134.719 1431.51 132.89 1435.08 Q131.084 1438.62 131.084 1445.75 Q131.084 1452.86 132.89 1456.42 Q134.719 1459.96 138.33 1459.96 Q141.964 1459.96 143.769 1456.42 Q145.598 1452.86 145.598 1445.75 Q145.598 1438.62 143.769 1435.08 Q141.964 1431.51 138.33 1431.51 M138.33 1427.81 Q144.14 1427.81 147.195 1432.42 Q150.274 1437 150.274 1445.75 Q150.274 1454.48 147.195 1459.08 Q144.14 1463.67 138.33 1463.67 Q132.519 1463.67 129.441 1459.08 Q126.385 1454.48 126.385 1445.75 Q126.385 1437 129.441 1432.42 Q132.519 1427.81 138.33 1427.81 Z" fill="#000000" fill-rule="nonzero" fill-opacity="1" /><path clip-path="url(#clip580)" d="M63.9319 1091.87 Q60.3208 1091.87 58.4921 1095.43 Q56.6865 1098.97 56.6865 1106.1 Q56.6865 1113.21 58.4921 1116.77 Q60.3208 1120.32 63.9319 1120.32 Q67.5661 1120.32 69.3717 1116.77 Q71.2004 1113.21 71.2004 1106.1 Q71.2004 1098.97 69.3717 1095.43 Q67.5661 1091.87 63.9319 1091.87 M63.9319 1088.16 Q69.742 1088.16 72.7976 1092.77 Q75.8763 1097.35 75.8763 1106.1 Q75.8763 1114.83 72.7976 1119.44 Q69.742 1124.02 63.9319 1124.02 Q58.1217 1124.02 55.043 1119.44 Q51.9875 1114.83 51.9875 1106.1 Q51.9875 1097.35 55.043 1092.77 Q58.1217 1088.16 63.9319 1088.16 Z" fill="#000000" fill-rule="nonzero" fill-opacity="1" /><path clip-path="url(#clip580)" d="M84.0938 1117.47 L88.978 1117.47 L88.978 1123.35 L84.0938 1123.35 L84.0938 1117.47 Z" fill="#000000" fill-rule="nonzero" fill-opacity="1" /><path clip-path="url(#clip580)" d="M103.191 1119.41 L119.51 1119.41 L119.51 1123.35 L97.566 1123.35 L97.566 1119.41 Q100.228 1116.66 104.811 1112.03 Q109.418 1107.38 110.598 1106.03 Q112.844 1103.51 113.723 1101.77 Q114.626 1100.01 114.626 1098.32 Q114.626 1095.57 112.682 1093.83 Q110.76 1092.1 107.658 1092.1 Q105.459 1092.1 103.006 1092.86 Q100.575 1093.63 97.7974 1095.18 L97.7974 1090.45 Q100.621 1089.32 103.075 1088.74 Q105.529 1088.16 107.566 1088.16 Q112.936 1088.16 116.131 1090.85 Q119.325 1093.53 119.325 1098.02 Q119.325 1100.15 118.515 1102.07 Q117.728 1103.97 115.621 1106.57 Q115.043 1107.24 111.941 1110.45 Q108.839 1113.65 103.191 1119.41 Z" fill="#000000" fill-rule="nonzero" fill-opacity="1" /><path clip-path="url(#clip580)" d="M129.371 1088.79 L147.728 1088.79 L147.728 1092.72 L133.654 1092.72 L133.654 1101.2 Q134.672 1100.85 135.691 1100.69 Q136.709 1100.5 137.728 1100.5 Q143.515 1100.5 146.894 1103.67 Q150.274 1106.84 150.274 1112.26 Q150.274 1117.84 146.802 1120.94 Q143.33 1124.02 137.01 1124.02 Q134.834 1124.02 132.566 1123.65 Q130.32 1123.28 127.913 1122.54 L127.913 1117.84 Q129.996 1118.97 132.219 1119.53 Q134.441 1120.08 136.918 1120.08 Q140.922 1120.08 143.26 1117.98 Q145.598 1115.87 145.598 1112.26 Q145.598 1108.65 143.26 1106.54 Q140.922 1104.44 136.918 1104.44 Q135.043 1104.44 133.168 1104.85 Q131.316 1105.27 129.371 1106.15 L129.371 1088.79 Z" fill="#000000" fill-rule="nonzero" fill-opacity="1" /><path clip-path="url(#clip580)" d="M62.9365 752.218 Q59.3254 752.218 57.4967 755.783 Q55.6912 759.325 55.6912 766.454 Q55.6912 773.561 57.4967 777.126 Q59.3254 780.667 62.9365 780.667 Q66.5707 780.667 68.3763 777.126 Q70.205 773.561 70.205 766.454 Q70.205 759.325 68.3763 755.783 Q66.5707 752.218 62.9365 752.218 M62.9365 748.515 Q68.7467 748.515 71.8022 753.121 Q74.8809 757.705 74.8809 766.454 Q74.8809 775.181 71.8022 779.788 Q68.7467 784.371 62.9365 784.371 Q57.1264 784.371 54.0477 779.788 Q50.9921 775.181 50.9921 766.454 Q50.9921 757.705 54.0477 753.121 Q57.1264 748.515 62.9365 748.515 Z" fill="#000000" fill-rule="nonzero" fill-opacity="1" /><path clip-path="url(#clip580)" d="M83.0984 777.82 L87.9827 777.82 L87.9827 783.7 L83.0984 783.7 L83.0984 777.82 Z" fill="#000000" fill-rule="nonzero" fill-opacity="1" /><path clip-path="url(#clip580)" d="M98.2141 749.14 L116.57 749.14 L116.57 753.075 L102.496 753.075 L102.496 761.547 Q103.515 761.2 104.534 761.038 Q105.552 760.853 106.571 760.853 Q112.358 760.853 115.737 764.024 Q119.117 767.195 119.117 772.612 Q119.117 778.191 115.645 781.292 Q112.172 784.371 105.853 784.371 Q103.677 784.371 101.409 784.001 Q99.1632 783.63 96.7558 782.89 L96.7558 778.191 Q98.8391 779.325 101.061 779.88 Q103.284 780.436 105.76 780.436 Q109.765 780.436 112.103 778.329 Q114.441 776.223 114.441 772.612 Q114.441 769.001 112.103 766.894 Q109.765 764.788 105.76 764.788 Q103.885 764.788 102.01 765.204 Q100.159 765.621 98.2141 766.501 L98.2141 749.14 Z" fill="#000000" fill-rule="nonzero" fill-opacity="1" /><path clip-path="url(#clip580)" d="M138.33 752.218 Q134.719 752.218 132.89 755.783 Q131.084 759.325 131.084 766.454 Q131.084 773.561 132.89 777.126 Q134.719 780.667 138.33 780.667 Q141.964 780.667 143.769 777.126 Q145.598 773.561 145.598 766.454 Q145.598 759.325 143.769 755.783 Q141.964 752.218 138.33 752.218 M138.33 748.515 Q144.14 748.515 147.195 753.121 Q150.274 757.705 150.274 766.454 Q150.274 775.181 147.195 779.788 Q144.14 784.371 138.33 784.371 Q132.519 784.371 129.441 779.788 Q126.385 775.181 126.385 766.454 Q126.385 757.705 129.441 753.121 Q132.519 748.515 138.33 748.515 Z" fill="#000000" fill-rule="nonzero" fill-opacity="1" /><path clip-path="url(#clip580)" d="M63.9319 412.57 Q60.3208 412.57 58.4921 416.135 Q56.6865 419.677 56.6865 426.807 Q56.6865 433.913 58.4921 437.478 Q60.3208 441.019 63.9319 441.019 Q67.5661 441.019 69.3717 437.478 Q71.2004 433.913 71.2004 426.807 Q71.2004 419.677 69.3717 416.135 Q67.5661 412.57 63.9319 412.57 M63.9319 408.867 Q69.742 408.867 72.7976 413.473 Q75.8763 418.057 75.8763 426.807 Q75.8763 435.533 72.7976 440.14 Q69.742 444.723 63.9319 444.723 Q58.1217 444.723 55.043 440.14 Q51.9875 435.533 51.9875 426.807 Q51.9875 418.057 55.043 413.473 Q58.1217 408.867 63.9319 408.867 Z" fill="#000000" fill-rule="nonzero" fill-opacity="1" /><path clip-path="url(#clip580)" d="M84.0938 438.172 L88.978 438.172 L88.978 444.052 L84.0938 444.052 L84.0938 438.172 Z" fill="#000000" fill-rule="nonzero" fill-opacity="1" /><path clip-path="url(#clip580)" d="M97.9826 409.492 L120.205 409.492 L120.205 411.483 L107.658 444.052 L102.774 444.052 L114.58 413.427 L97.9826 413.427 L97.9826 409.492 Z" fill="#000000" fill-rule="nonzero" fill-opacity="1" /><path clip-path="url(#clip580)" d="M129.371 409.492 L147.728 409.492 L147.728 413.427 L133.654 413.427 L133.654 421.899 Q134.672 421.552 135.691 421.39 Q136.709 421.205 137.728 421.205 Q143.515 421.205 146.894 424.376 Q150.274 427.547 150.274 432.964 Q150.274 438.543 146.802 441.644 Q143.33 444.723 137.01 444.723 Q134.834 444.723 132.566 444.353 Q130.32 443.982 127.913 443.242 L127.913 438.543 Q129.996 439.677 132.219 440.232 Q134.441 440.788 136.918 440.788 Q140.922 440.788 143.26 438.681 Q145.598 436.575 145.598 432.964 Q145.598 429.353 143.26 427.246 Q140.922 425.14 136.918 425.14 Q135.043 425.14 133.168 425.557 Q131.316 425.973 129.371 426.853 L129.371 409.492 Z" fill="#000000" fill-rule="nonzero" fill-opacity="1" /><path clip-path="url(#clip580)" d="M53.7467 100.469 L61.3856 100.469 L61.3856 74.1031 L53.0754 75.7697 L53.0754 71.5105 L61.3393 69.8438 L66.0152 69.8438 L66.0152 100.469 L73.654 100.469 L73.654 104.404 L53.7467 104.404 L53.7467 100.469 Z" fill="#000000" fill-rule="nonzero" fill-opacity="1" /><path clip-path="url(#clip580)" d="M83.0984 98.5243 L87.9827 98.5243 L87.9827 104.404 L83.0984 104.404 L83.0984 98.5243 Z" fill="#000000" fill-rule="nonzero" fill-opacity="1" /><path clip-path="url(#clip580)" d="M108.168 72.9225 Q104.557 72.9225 102.728 76.4873 Q100.922 80.029 100.922 87.1586 Q100.922 94.265 102.728 97.8298 Q104.557 101.371 108.168 101.371 Q111.802 101.371 113.608 97.8298 Q115.436 94.265 115.436 87.1586 Q115.436 80.029 113.608 76.4873 Q111.802 72.9225 108.168 72.9225 M108.168 69.2189 Q113.978 69.2189 117.033 73.8253 Q120.112 78.4086 120.112 87.1586 Q120.112 95.8854 117.033 100.492 Q113.978 105.075 108.168 105.075 Q102.358 105.075 99.2789 100.492 Q96.2234 95.8854 96.2234 87.1586 Q96.2234 78.4086 99.2789 73.8253 Q102.358 69.2189 108.168 69.2189 Z" fill="#000000" fill-rule="nonzero" fill-opacity="1" /><path clip-path="url(#clip580)" d="M138.33 72.9225 Q134.719 72.9225 132.89 76.4873 Q131.084 80.029 131.084 87.1586 Q131.084 94.265 132.89 97.8298 Q134.719 101.371 138.33 101.371 Q141.964 101.371 143.769 97.8298 Q145.598 94.265 145.598 87.1586 Q145.598 80.029 143.769 76.4873 Q141.964 72.9225 138.33 72.9225 M138.33 69.2189 Q144.14 69.2189 147.195 73.8253 Q150.274 78.4086 150.274 87.1586 Q150.274 95.8854 147.195 100.492 Q144.14 105.075 138.33 105.075 Q132.519 105.075 129.441 100.492 Q126.385 95.8854 126.385 87.1586 Q126.385 78.4086 129.441 73.8253 Q132.519 69.2189 138.33 69.2189 Z" fill="#000000" fill-rule="nonzero" fill-opacity="1" /><polyline clip-path="url(#clip582)" style="stroke:#009af9; stroke-linecap:round; stroke-linejoin:round; stroke-width:4; stroke-opacity:1; fill:none" points="247.59,1445.72 250.854,1445.72 254.119,1445.72 257.384,1445.72 260.649,1445.72 263.914,1445.72 267.179,1445.72 270.444,1445.72 273.709,1445.72 276.974,1445.72 280.239,1445.72 283.504,1445.72 286.769,1445.72 290.034,1445.72 293.299,1445.72 296.564,1445.72 299.829,1445.72 303.093,1445.72 306.358,1445.72 309.623,1445.72 312.888,1445.72 316.153,1445.72 319.418,1445.72 322.683,1445.72 325.948,1445.72 329.213,1445.72 332.478,1445.72 335.743,1445.72 339.008,1445.72 342.273,1445.72 345.538,1445.72 348.803,1445.72 352.068,1445.72 355.332,1445.72 358.597,1445.72 361.862,1445.72 365.127,1445.72 368.392,1445.72 371.657,1445.72 374.922,1445.72 378.187,1445.72 381.452,1445.72 384.717,1445.72 387.982,1445.72 391.247,1445.72 394.512,1445.72 397.777,1445.72 401.042,1445.72 404.307,1445.72 407.571,1445.72 410.836,1445.72 414.101,1445.72 417.366,1445.72 420.631,1445.72 423.896,1445.72 427.161,1445.72 430.426,1445.72 433.691,1445.72 436.956,1445.72 440.221,1445.72 443.486,1445.72 446.751,1445.72 450.016,1445.72 453.281,1445.72 456.546,1445.72 459.81,1445.72 463.075,1445.72 466.34,1445.72 469.605,1445.72 472.87,1445.72 476.135,1445.72 479.4,1445.72 482.665,1445.72 485.93,1445.72 489.195,1445.72 492.46,1445.72 495.725,1445.72 498.99,1445.72 502.255,1445.72 505.52,1445.72 508.785,1445.72 512.049,1445.72 515.314,1445.72 518.579,1445.72 521.844,1445.72 525.109,1445.72 528.374,1445.72 531.639,1445.72 534.904,1445.72 538.169,1445.72 541.434,1445.72 544.699,1445.72 547.964,1445.72 551.229,1445.72 554.494,1445.72 557.759,1445.72 561.024,1445.72 564.288,1445.72 567.553,1445.72 570.818,1445.72 574.083,1445.72 577.348,1445.72 580.613,1445.72 583.878,1445.72 587.143,1445.72 590.408,1445.72 593.673,1445.72 596.938,1445.72 600.203,1445.72 603.468,1445.72 606.733,1445.72 609.998,1445.72 613.263,1445.72 616.527,1445.72 619.792,1445.72 623.057,1445.72 626.322,1445.72 629.587,1445.72 632.852,1445.72 636.117,1445.72 639.382,1445.72 642.647,1445.72 645.912,1445.72 649.177,1445.72 652.442,1445.72 655.707,1445.72 658.972,1445.72 662.237,1445.72 665.502,1445.72 668.766,1445.72 672.031,1445.72 675.296,1445.72 678.561,1445.72 681.826,1445.72 685.091,1445.72 688.356,1445.72 691.621,1445.72 694.886,1445.72 698.151,1445.72 701.416,1445.72 704.681,1445.72 707.946,1445.72 711.211,1445.72 714.476,1445.72 717.741,1445.72 721.005,1445.72 724.27,1445.72 727.535,1445.72 730.8,1445.72 734.065,1445.72 737.33,1445.72 740.595,1445.72 743.86,1445.72 747.125,1445.72 750.39,1445.72 753.655,1445.72 756.92,1445.72 760.185,1445.72 763.45,1445.72 766.715,1445.72 769.98,1445.72 773.244,1445.72 776.509,1445.72 779.774,1445.72 783.039,1445.72 786.304,1445.72 789.569,1445.72 792.834,1445.72 796.099,1445.72 799.364,1445.72 802.629,1445.72 805.894,1445.72 809.159,1445.72 812.424,1445.72 815.689,1445.72 818.954,1445.72 822.219,1445.72 825.483,1445.72 828.748,1445.72 832.013,1445.72 835.278,1445.72 838.543,1445.72 841.808,1445.72 845.073,1445.72 848.338,1445.72 851.603,1445.72 854.868,1445.72 858.133,1445.72 861.398,1445.72 864.663,1445.72 867.928,1445.72 871.193,1445.72 874.458,1445.72 877.722,1445.72 880.987,1445.72 884.252,1445.72 887.517,1445.72 890.782,1445.72 894.047,1445.72 897.312,1445.72 900.577,1445.72 903.842,1445.72 907.107,1445.72 910.372,1445.72 913.637,1445.72 916.902,1445.72 920.167,1445.72 923.432,1445.72 926.697,1445.72 929.961,1445.72 933.226,1445.72 936.491,1445.72 939.756,1445.72 943.021,1445.72 946.286,1445.72 949.551,1445.72 952.816,1445.72 956.081,1445.72 959.346,1445.72 962.611,1445.72 965.876,1445.72 969.141,1445.72 972.406,1445.72 975.671,1445.72 978.936,1445.72 982.2,1445.72 985.465,1445.72 988.73,1445.72 991.995,1445.72 995.26,1445.72 998.525,1445.72 1001.79,1445.72 1005.06,1445.72 1008.32,1445.72 1011.58,1445.72 1014.85,1445.72 1018.11,1445.72 1021.38,1445.72 1024.64,1445.71 1027.91,1445.71 1031.17,1445.71 1034.44,1445.71 1037.7,1445.71 1040.97,1445.71 1044.23,1445.71 1047.5,1445.71 1050.76,1445.7 1054.03,1445.7 1057.29,1445.69 1060.56,1445.68 1063.82,1445.66 1067.09,1445.64 1070.35,1445.61 1073.62,1445.58 1076.88,1445.53 1080.15,1445.46 1083.41,1445.38 1086.68,1445.27 1089.94,1445.12 1093.21,1444.93 1096.47,1444.69 1099.74,1444.37 1103,1443.97 1106.27,1443.46 1109.53,1442.82 1112.8,1442.01 1116.06,1441.01 1119.33,1439.75 1122.59,1438.2 1125.86,1436.3 1129.12,1433.97 1132.39,1431.14 1135.65,1427.71 1138.92,1423.6 1142.18,1418.68 1145.45,1412.83 1148.71,1405.92 1151.98,1397.79 1155.24,1388.3 1158.51,1377.27 1161.77,1364.53 1165.04,1349.9 1168.3,1333.2 1171.57,1314.24 1174.83,1292.87 1178.1,1268.91 1181.36,1242.23 1184.63,1212.68 1187.89,1180.18 1191.16,1144.67 1194.42,1106.12 1197.69,1064.54 1200.95,1020.02 1204.22,972.687 1207.48,922.718 1210.75,870.367 1214.01,815.945 1217.28,759.828 1220.54,702.452 1223.81,644.311 1227.07,585.949 1230.34,527.957 1233.6,470.96 1236.87,415.608 1240.13,362.565 1243.4,312.496 1246.66,266.049 1249.93,223.85 1253.19,186.479 1256.46,154.466 1259.72,128.27 1262.99,108.275 1266.25,94.7765 1269.51,87.9763 1272.78,87.9763 1276.04,94.7765 1279.31,108.275 1282.57,128.27 1285.84,154.466 1289.1,186.479 1292.37,223.85 1295.63,266.049 1298.9,312.496 1302.16,362.565 1305.43,415.608 1308.69,470.96 1311.96,527.957 1315.22,585.949 1318.49,644.311 1321.75,702.452 1325.02,759.828 1328.28,815.945 1331.55,870.367 1334.81,922.718 1338.08,972.687 1341.34,1020.02 1344.61,1064.54 1347.87,1106.12 1351.14,1144.67 1354.4,1180.18 1357.67,1212.68 1360.93,1242.23 1364.2,1268.91 1367.46,1292.87 1370.73,1314.24 1373.99,1333.2 1377.26,1349.9 1380.52,1364.53 1383.79,1377.27 1387.05,1388.3 1390.32,1397.79 1393.58,1405.92 1396.85,1412.83 1400.11,1418.68 1403.38,1423.6 1406.64,1427.71 1409.91,1431.14 1413.17,1433.97 1416.44,1436.3 1419.7,1438.2 1422.97,1439.75 1426.23,1441.01 1429.5,1442.01 1432.76,1442.82 1436.03,1443.46 1439.29,1443.97 1442.56,1444.37 1445.82,1444.69 1449.09,1444.93 1452.35,1445.12 1455.62,1445.27 1458.88,1445.38 1462.15,1445.46 1465.41,1445.53 1468.68,1445.58 1471.94,1445.61 1475.21,1445.64 1478.47,1445.66 1481.74,1445.68 1485,1445.69 1488.27,1445.7 1491.53,1445.7 1494.8,1445.71 1498.06,1445.71 1501.33,1445.71 1504.59,1445.71 1507.86,1445.71 1511.12,1445.71 1514.39,1445.71 1517.65,1445.71 1520.92,1445.72 1524.18,1445.72 1527.45,1445.72 1530.71,1445.72 1533.97,1445.72 1537.24,1445.72 1540.5,1445.72 1543.77,1445.72 1547.03,1445.72 1550.3,1445.72 1553.56,1445.72 1556.83,1445.72 1560.09,1445.72 1563.36,1445.72 1566.62,1445.72 1569.89,1445.72 1573.15,1445.72 1576.42,1445.72 1579.68,1445.72 1582.95,1445.72 1586.21,1445.72 1589.48,1445.72 1592.74,1445.72 1596.01,1445.72 1599.27,1445.72 1602.54,1445.72 1605.8,1445.72 1609.07,1445.72 1612.33,1445.72 1615.6,1445.72 1618.86,1445.72 1622.13,1445.72 1625.39,1445.72 1628.66,1445.72 1631.92,1445.72 1635.19,1445.72 1638.45,1445.72 1641.72,1445.72 1644.98,1445.72 1648.25,1445.72 1651.51,1445.72 1654.78,1445.72 1658.04,1445.72 1661.31,1445.72 1664.57,1445.72 1667.84,1445.72 1671.1,1445.72 1674.37,1445.72 1677.63,1445.72 1680.9,1445.72 1684.16,1445.72 1687.43,1445.72 1690.69,1445.72 1693.96,1445.72 1697.22,1445.72 1700.49,1445.72 1703.75,1445.72 1707.02,1445.72 1710.28,1445.72 1713.55,1445.72 1716.81,1445.72 1720.08,1445.72 1723.34,1445.72 1726.61,1445.72 1729.87,1445.72 1733.14,1445.72 1736.4,1445.72 1739.67,1445.72 1742.93,1445.72 1746.2,1445.72 1749.46,1445.72 1752.73,1445.72 1755.99,1445.72 1759.26,1445.72 1762.52,1445.72 1765.79,1445.72 1769.05,1445.72 1772.32,1445.72 1775.58,1445.72 1778.85,1445.72 1782.11,1445.72 1785.38,1445.72 1788.64,1445.72 1791.9,1445.72 1795.17,1445.72 1798.43,1445.72 1801.7,1445.72 1804.96,1445.72 1808.23,1445.72 1811.49,1445.72 1814.76,1445.72 1818.02,1445.72 1821.29,1445.72 1824.55,1445.72 1827.82,1445.72 1831.08,1445.72 1834.35,1445.72 1837.61,1445.72 1840.88,1445.72 1844.14,1445.72 1847.41,1445.72 1850.67,1445.72 1853.94,1445.72 1857.2,1445.72 1860.47,1445.72 1863.73,1445.72 1867,1445.72 1870.26,1445.72 1873.53,1445.72 1876.79,1445.72 1880.06,1445.72 1883.32,1445.72 1886.59,1445.72 1889.85,1445.72 1893.12,1445.72 1896.38,1445.72 1899.65,1445.72 1902.91,1445.72 1906.18,1445.72 1909.44,1445.72 1912.71,1445.72 1915.97,1445.72 1919.24,1445.72 1922.5,1445.72 1925.77,1445.72 1929.03,1445.72 1932.3,1445.72 1935.56,1445.72 1938.83,1445.72 1942.09,1445.72 1945.36,1445.72 1948.62,1445.72 1951.89,1445.72 1955.15,1445.72 1958.42,1445.72 1961.68,1445.72 1964.95,1445.72 1968.21,1445.72 1971.48,1445.72 1974.74,1445.72 1978.01,1445.72 1981.27,1445.72 1984.54,1445.72 1987.8,1445.72 1991.07,1445.72 1994.33,1445.72 1997.6,1445.72 2000.86,1445.72 2004.13,1445.72 2007.39,1445.72 2010.66,1445.72 2013.92,1445.72 2017.19,1445.72 2020.45,1445.72 2023.72,1445.72 2026.98,1445.72 2030.25,1445.72 2033.51,1445.72 2036.78,1445.72 2040.04,1445.72 2043.31,1445.72 2046.57,1445.72 2049.84,1445.72 2053.1,1445.72 2056.36,1445.72 2059.63,1445.72 2062.89,1445.72 2066.16,1445.72 2069.42,1445.72 2072.69,1445.72 2075.95,1445.72 2079.22,1445.72 2082.48,1445.72 2085.75,1445.72 2089.01,1445.72 2092.28,1445.72 2095.54,1445.72 2098.81,1445.72 2102.07,1445.72 2105.34,1445.72 2108.6,1445.72 2111.87,1445.72 2115.13,1445.72 2118.4,1445.72 2121.66,1445.72 2124.93,1445.72 2128.19,1445.72 2131.46,1445.72 2134.72,1445.72 2137.99,1445.72 2141.25,1445.72 2144.52,1445.72 2147.78,1445.72 2151.05,1445.72 2154.31,1445.72 2157.58,1445.72 2160.84,1445.72 2164.11,1445.72 2167.37,1445.72 2170.64,1445.72 2173.9,1445.72 2177.17,1445.72 2180.43,1445.72 2183.7,1445.72 2186.96,1445.72 2190.23,1445.72 2193.49,1445.72 2196.76,1445.72 2200.02,1445.72 2203.29,1445.72 2206.55,1445.72 2209.82,1445.72 2213.08,1445.72 2216.35,1445.72 2219.61,1445.72 2222.88,1445.72 2226.14,1445.72 2229.41,1445.72 2232.67,1445.72 2235.94,1445.72 2239.2,1445.72 2242.47,1445.72 2245.73,1445.72 2249,1445.72 2252.26,1445.72 2255.53,1445.72 2258.79,1445.72 2262.06,1445.72 2265.32,1445.72 2268.59,1445.72 2271.85,1445.72 2275.12,1445.72 2278.38,1445.72 2281.65,1445.72 2284.91,1445.72 2288.18,1445.72 2291.44,1445.72 "/>
<path clip-path="url(#clip580)" d="M1931.67 198.898 L2280.54 198.898 L2280.54 95.2176 L1931.67 95.2176  Z" fill="#ffffff" fill-rule="evenodd" fill-opacity="1"/>
<polyline clip-path="url(#clip580)" style="stroke:#000000; stroke-linecap:round; stroke-linejoin:round; stroke-width:4; stroke-opacity:1; fill:none" points="1931.67,198.898 2280.54,198.898 2280.54,95.2176 1931.67,95.2176 1931.67,198.898 "/>
<polyline clip-path="url(#clip580)" style="stroke:#009af9; stroke-linecap:round; stroke-linejoin:round; stroke-width:4; stroke-opacity:1; fill:none" points="1955.74,147.058 2100.17,147.058 "/>
<path clip-path="url(#clip580)" d="M2124.25 154.106 L2124.25 138.412 L2128.51 138.412 L2128.51 153.944 Q2128.51 157.625 2129.94 159.476 Q2131.38 161.305 2134.25 161.305 Q2137.7 161.305 2139.69 159.106 Q2141.7 156.907 2141.7 153.111 L2141.7 138.412 L2145.96 138.412 L2145.96 164.338 L2141.7 164.338 L2141.7 160.356 Q2140.15 162.717 2138.09 163.875 Q2136.05 165.009 2133.34 165.009 Q2128.88 165.009 2126.56 162.231 Q2124.25 159.453 2124.25 154.106 M2134.96 137.787 L2134.96 137.787 Z" fill="#000000" fill-rule="nonzero" fill-opacity="1" /><path clip-path="url(#clip580)" d="M2164.96 128.366 Q2161.86 133.69 2160.36 138.898 Q2158.85 144.106 2158.85 149.453 Q2158.85 154.801 2160.36 160.055 Q2161.88 165.287 2164.96 170.588 L2161.26 170.588 Q2157.79 165.148 2156.05 159.893 Q2154.34 154.639 2154.34 149.453 Q2154.34 144.291 2156.05 139.06 Q2157.76 133.828 2161.26 128.366 L2164.96 128.366 Z" fill="#000000" fill-rule="nonzero" fill-opacity="1" /><path clip-path="url(#clip580)" d="M2194.78 138.412 L2185.4 151.027 L2195.26 164.338 L2190.24 164.338 L2182.7 154.152 L2175.15 164.338 L2170.13 164.338 L2180.2 150.773 L2170.98 138.412 L2176.01 138.412 L2182.88 147.648 L2189.76 138.412 L2194.78 138.412 Z" fill="#000000" fill-rule="nonzero" fill-opacity="1" /><path clip-path="url(#clip580)" d="M2202.37 158.458 L2207.26 158.458 L2207.26 162.439 L2203.46 169.847 L2200.47 169.847 L2202.37 162.439 L2202.37 158.458 Z" fill="#000000" fill-rule="nonzero" fill-opacity="1" /><path clip-path="url(#clip580)" d="M2226.95 132.856 Q2223.34 132.856 2221.51 136.421 Q2219.71 139.963 2219.71 147.092 Q2219.71 154.199 2221.51 157.764 Q2223.34 161.305 2226.95 161.305 Q2230.59 161.305 2232.39 157.764 Q2234.22 154.199 2234.22 147.092 Q2234.22 139.963 2232.39 136.421 Q2230.59 132.856 2226.95 132.856 M2226.95 129.153 Q2232.76 129.153 2235.82 133.759 Q2238.9 138.342 2238.9 147.092 Q2238.9 155.819 2235.82 160.426 Q2232.76 165.009 2226.95 165.009 Q2221.14 165.009 2218.07 160.426 Q2215.01 155.819 2215.01 147.092 Q2215.01 138.342 2218.07 133.759 Q2221.14 129.153 2226.95 129.153 Z" fill="#000000" fill-rule="nonzero" fill-opacity="1" /><path clip-path="url(#clip580)" d="M2245.84 128.366 L2249.55 128.366 Q2253.02 133.828 2254.73 139.06 Q2256.47 144.291 2256.47 149.453 Q2256.47 154.639 2254.73 159.893 Q2253.02 165.148 2249.55 170.588 L2245.84 170.588 Q2248.92 165.287 2250.43 160.055 Q2251.95 154.801 2251.95 149.453 Q2251.95 144.106 2250.43 138.898 Q2248.92 133.69 2245.84 128.366 Z" fill="#000000" fill-rule="nonzero" fill-opacity="1" /></svg>
